<svg xmlns="http://www.w3.org/2000/svg" xmlns:xlink="http://www.w3.org/1999/xlink" viewBox="0 0 307.03 127.53"><defs><style>.cls-1{fill:none;}.cls-2{clip-path:url(#clip-path);}.cls-3{fill:#3d3935;}.cls-4{fill:#fff;}.cls-5{fill:#f91e26;}</style><clipPath id="clip-path"><rect class="cls-1" width="307.03" height="127.53"/></clipPath></defs><g id="CMYK_Logos" data-name="CMYK Logos"><g class="cls-2"><path class="cls-3" d="M120.16,33.74l8.9-.16a10.18,10.18,0,0,1,3.89.59,7.7,7.7,0,0,1,2.69,1.7,6.66,6.66,0,0,1,1.58,2.48,8.92,8.92,0,0,1,.54,3,8.24,8.24,0,0,1-.61,3.47,7,7,0,0,1-1.79,2.5,7.89,7.89,0,0,1-2.63,1.55,9.7,9.7,0,0,1-3.14.57l-3.77.07.15,8.6-5.39.1Zm8.8,11.2a3.2,3.2,0,0,0,2.42-1,3.39,3.39,0,0,0,.86-2.45,3.53,3.53,0,0,0-1-2.49,3.21,3.21,0,0,0-2.47-.93l-3.19.06.12,6.85Z"/><path class="cls-3" d="M140,33.74l5.24-.09.16,8.9a5.3,5.3,0,0,1,2.2-1.56,7.93,7.93,0,0,1,2.81-.58,6.45,6.45,0,0,1,4.78,1.67,7.1,7.1,0,0,1,1.87,5.17l.18,10.63L152,58l-.17-9.82a3.37,3.37,0,0,0-.81-2.33A2.66,2.66,0,0,0,149,45a3.56,3.56,0,0,0-1.5.34,3.24,3.24,0,0,0-1.72,2,4.58,4.58,0,0,0-.2,1.45l.16,9.23-5.27.09Z"/><path class="cls-3" d="M159.47,49.58a9.33,9.33,0,0,1,.62-3.59,9,9,0,0,1,1.83-2.94,8.63,8.63,0,0,1,2.88-2,10.17,10.17,0,0,1,7.49-.13,8.6,8.6,0,0,1,2.93,1.91,9,9,0,0,1,1.94,2.88,9.71,9.71,0,0,1,.12,7.14,8.76,8.76,0,0,1-1.84,2.94,8.91,8.91,0,0,1-2.85,2,9.22,9.22,0,0,1-3.73.8,9.47,9.47,0,0,1-3.77-.67,8.8,8.8,0,0,1-4.88-4.8,9.4,9.4,0,0,1-.74-3.56M168.78,54a3.89,3.89,0,0,0,1.75-.41,3.94,3.94,0,0,0,1.29-1.07,4.62,4.62,0,0,0,.76-1.5,5.74,5.74,0,0,0,.22-1.71,5.65,5.65,0,0,0-.28-1.69,4.21,4.21,0,0,0-.82-1.46,4,4,0,0,0-1.31-1,3.89,3.89,0,0,0-1.77-.35,4,4,0,0,0-1.77.41,3.79,3.79,0,0,0-1.28,1,4.62,4.62,0,0,0-.76,1.48,5.33,5.33,0,0,0,.06,3.41,5,5,0,0,0,.81,1.47,3.72,3.72,0,0,0,1.32,1,4,4,0,0,0,1.78.35"/><path class="cls-3" d="M197.17,56c-.19.13-.48.33-.86.62a8.2,8.2,0,0,1-1.51.85,13.71,13.71,0,0,1-2.2.75,12.73,12.73,0,0,1-2.93.37,11.11,11.11,0,0,1-4-.61,8.56,8.56,0,0,1-3-1.84,7.76,7.76,0,0,1-1.92-2.88,10.42,10.42,0,0,1-.71-3.74,10.16,10.16,0,0,1,.54-3.47,8.73,8.73,0,0,1,1.69-2.94,8.36,8.36,0,0,1,2.75-2,9,9,0,0,1,3.72-.82,8.67,8.67,0,0,1,3.68.67,7.53,7.53,0,0,1,2.69,2A8.74,8.74,0,0,1,196.82,46a13.82,13.82,0,0,1,.61,4l0,.88-12.23.21a3.28,3.28,0,0,0,1.27,2.42,4.76,4.76,0,0,0,3.29,1,7.73,7.73,0,0,0,3.32-.66A11.19,11.19,0,0,0,195,52.71Zm-4.76-8.45a3.21,3.21,0,0,0-.92-2.15,3.6,3.6,0,0,0-1.11-.77,3.66,3.66,0,0,0-1.58-.28,3.85,3.85,0,0,0-1.61.34,3.58,3.58,0,0,0-1.14.8,3.44,3.44,0,0,0-.67,1.06,2.69,2.69,0,0,0-.22,1.12Z"/><path class="cls-3" d="M200.53,41l5.06-.09.18,1.87A6,6,0,0,1,208,41.08a7,7,0,0,1,2.87-.67,6.31,6.31,0,0,1,4.74,1.67,7.12,7.12,0,0,1,1.83,5.17l.18,10.63L212.3,58l-.17-9.89a3.4,3.4,0,0,0-.76-2.26,2.5,2.5,0,0,0-2-.81,3.59,3.59,0,0,0-1.53.34,3.42,3.42,0,0,0-1.09.84,3.6,3.6,0,0,0-.64,1.21,4.84,4.84,0,0,0-.19,1.45l.16,9.23-5.24.09Z"/><path class="cls-3" d="M222.08,33.62l3.15,0a1.24,1.24,0,0,1,1.27,1.22l0,2.23a1.25,1.25,0,0,1-1.23,1.27l-3.14.06a1.25,1.25,0,0,1-1.27-1.23l0-2.23a1.24,1.24,0,0,1,1.22-1.27m-.94,7.27,5.28-.09.3,17.18-5.28.09Z"/><polygon class="cls-3" points="235.22 49.47 228.81 41.01 235.11 40.9 238.27 45.42 241.3 40.79 247.05 40.69 241.15 49 247.9 57.86 241.6 57.97 238.11 53.08 234.75 58.09 229 58.19 235.22 49.47"/><path class="cls-3" d="M142.17,88.83a11.54,11.54,0,0,1-1.84,2,13.32,13.32,0,0,1-2.4,1.67,13.85,13.85,0,0,1-2.88,1.15,13.68,13.68,0,0,1-8.34-.41,11.71,11.71,0,0,1-4-2.58,11.91,11.91,0,0,1-2.65-4,13.7,13.7,0,0,1-1-5.09,14,14,0,0,1,.83-5.09,12.21,12.21,0,0,1,2.51-4.15,12.05,12.05,0,0,1,3.94-2.81,12.76,12.76,0,0,1,5.13-1.1,13.46,13.46,0,0,1,6,1.14,11.15,11.15,0,0,1,4.29,3.52L138,76.81a9.21,9.21,0,0,0-2.64-2.43,6.78,6.78,0,0,0-3.61-.87,7.07,7.07,0,0,0-3,.66,6.36,6.36,0,0,0-2.2,1.7,7.67,7.67,0,0,0-1.37,2.5,9,9,0,0,0-.44,3,8.83,8.83,0,0,0,.55,3,7.12,7.12,0,0,0,1.45,2.39A6.44,6.44,0,0,0,129,88.32a6.76,6.76,0,0,0,2.9.54,8.35,8.35,0,0,0,2.28-.32,6.71,6.71,0,0,0,3-1.84c.38-.41.76-.83,1.11-1.25Z"/><path class="cls-3" d="M144.86,69.26l5.24-.1.15,8.9a5.48,5.48,0,0,1,2.21-1.55,7.72,7.72,0,0,1,2.81-.58A6.41,6.41,0,0,1,160,77.6a7,7,0,0,1,1.87,5.17l.19,10.62-5.24.09-.17-9.81a3.37,3.37,0,0,0-.81-2.33,2.64,2.64,0,0,0-2.07-.81,3.37,3.37,0,0,0-1.49.34,3.15,3.15,0,0,0-1.09.84,3.47,3.47,0,0,0-.64,1.2,4.62,4.62,0,0,0-.19,1.45l.16,9.23-5.27.1Z"/><path class="cls-3" d="M166.44,69.14l3.46-.06A1.09,1.09,0,0,1,171,70.15l0,2.54A1.09,1.09,0,0,1,170,73.8l-3.46.06a1.09,1.09,0,0,1-1.11-1.07l0-2.54a1.09,1.09,0,0,1,1.07-1.11m-.78,7.27,5.27-.09.3,17.17-5.27.1Z"/><rect class="cls-3" x="174.89" y="69.11" width="5.28" height="24.43" transform="translate(-1.39 3.11) rotate(-1)"/><path class="cls-3" d="M195.73,91.76a6.42,6.42,0,0,1-2,1.63,6.33,6.33,0,0,1-2.87.69,7,7,0,0,1-5.37-2.3A8.75,8.75,0,0,1,183.81,89a11,11,0,0,1-.65-3.67,9.29,9.29,0,0,1,.76-4.06A8.72,8.72,0,0,1,186,78.37a9,9,0,0,1,2.86-1.75A9.31,9.31,0,0,1,192,76a8.68,8.68,0,0,1,1.94.13,12.39,12.39,0,0,1,1.43.4l-.13-7.48,5.24-.09.43,24.43-4.91.09ZM195.43,81a4.18,4.18,0,0,0-1.19-.45,7.44,7.44,0,0,0-1.6-.12,3.82,3.82,0,0,0-3.11,1.41,5.3,5.3,0,0,0-1.06,3.5,5,5,0,0,0,1,3,3.27,3.27,0,0,0,2.77,1.14,3.41,3.41,0,0,0,1.52-.34,3,3,0,0,0,1-.84,3.15,3.15,0,0,0,.59-1.22,6.15,6.15,0,0,0,.16-1.43Z"/><path class="cls-3" d="M204.58,76.45l5-.08.23,2.15a7.7,7.7,0,0,1,1.78-1.71,5.1,5.1,0,0,1,3-.86,8.49,8.49,0,0,1,1.19,0,4.25,4.25,0,0,1,1,.24L216,80.91a6.45,6.45,0,0,0-1.91-.23A3.91,3.91,0,0,0,210,85l.14,8.5-5.27.09Z"/><path class="cls-3" d="M234.84,91.53c-.2.12-.49.33-.87.62a8.83,8.83,0,0,1-1.51.85,13.71,13.71,0,0,1-2.2.75,12.69,12.69,0,0,1-2.93.36,10.84,10.84,0,0,1-4-.61,8.58,8.58,0,0,1-3-1.83,7.88,7.88,0,0,1-1.92-2.88,10.68,10.68,0,0,1-.71-3.74,10,10,0,0,1,.55-3.48A8.74,8.74,0,0,1,220,78.63a8.59,8.59,0,0,1,2.75-2,9,9,0,0,1,3.73-.82,8.65,8.65,0,0,1,3.67.67,7.42,7.42,0,0,1,2.69,2,8.74,8.74,0,0,1,1.69,3.08,14.11,14.11,0,0,1,.62,4v.88l-12.23.21A3.25,3.25,0,0,0,224.15,89a4.76,4.76,0,0,0,3.29,1,7.81,7.81,0,0,0,3.33-.66,12.13,12.13,0,0,0,1.85-1.08Zm-4.77-8.46a2.85,2.85,0,0,0-.24-1.11,3.13,3.13,0,0,0-.68-1,3.49,3.49,0,0,0-1.11-.77,3.66,3.66,0,0,0-1.58-.29,4.14,4.14,0,0,0-1.6.34,3.7,3.7,0,0,0-1.15.81,3.51,3.51,0,0,0-.67,1.06,2.83,2.83,0,0,0-.22,1.12Z"/><path class="cls-3" d="M238.2,76.51l5.05-.09.18,1.86a6,6,0,0,1,2.19-1.68,6.91,6.91,0,0,1,2.86-.68,6.35,6.35,0,0,1,4.74,1.68,7.11,7.11,0,0,1,1.83,5.17l.18,10.62-5.27.1-.17-9.89a3.38,3.38,0,0,0-.76-2.26,2.43,2.43,0,0,0-2-.81,3.52,3.52,0,0,0-1.53.34,3.15,3.15,0,0,0-1.09.84,3.62,3.62,0,0,0-.63,1.2,4.62,4.62,0,0,0-.2,1.45l.16,9.23-5.23.09Z"/><path class="cls-3" d="M257.84,69.16l2.88,0a1.25,1.25,0,0,1,1.22,1.61l-1.77,5.92a1.23,1.23,0,0,1-1.18.89l-1.62,0a1.24,1.24,0,0,1-1.26-1.35l.51-5.9a1.26,1.26,0,0,1,1.22-1.15"/><path class="cls-3" d="M264.54,88.32a6.62,6.62,0,0,0,2.24,1.24,7.59,7.59,0,0,0,2.66.47,5.55,5.55,0,0,0,1.94-.33,1.11,1.11,0,0,0,.75-1.15A1.24,1.24,0,0,0,272,88a1.52,1.52,0,0,0-.61-.5A8,8,0,0,0,270.1,87c-.53-.17-1.2-.35-2-.56a12.22,12.22,0,0,1-2-.64,7.42,7.42,0,0,1-1.74-1,4.89,4.89,0,0,1-1.23-1.48,4.74,4.74,0,0,1,0-4.24,5.35,5.35,0,0,1,1.49-1.71A7.55,7.55,0,0,1,267,76.2a10.45,10.45,0,0,1,2.86-.43,13.33,13.33,0,0,1,3.86.43,10.87,10.87,0,0,1,3.06,1.39l-2.17,3.52a11,11,0,0,0-1.94-1,6.35,6.35,0,0,0-2.44-.39,3.38,3.38,0,0,0-1.76.38,1,1,0,0,0-.53.94c0,.56.4,1,1.16,1.22s1.79.55,3.09.87A8,8,0,0,1,276,85.11a4.8,4.8,0,0,1,1.25,3.39,4.54,4.54,0,0,1-.59,2.46A5.33,5.33,0,0,1,275,92.7a8.35,8.35,0,0,1-2.43,1,12.51,12.51,0,0,1-2.8.38,15.23,15.23,0,0,1-4.37-.55A7.82,7.82,0,0,1,262,91.73Z"/><path class="cls-3" d="M279.88,73.59a2.41,2.41,0,0,1-1.17-.28,2.19,2.19,0,0,1-.81-.79,2.28,2.28,0,0,1-.3-1.18,2.25,2.25,0,0,1,.3-1.18,2.12,2.12,0,0,1,.81-.79,2.42,2.42,0,0,1,1.17-.29,2.37,2.37,0,0,1,1.18.29,2.12,2.12,0,0,1,.81.79,2.25,2.25,0,0,1,.3,1.18,2.28,2.28,0,0,1-.3,1.18,2.19,2.19,0,0,1-.81.79A2.37,2.37,0,0,1,279.88,73.59Zm0-.55a1.75,1.75,0,0,0,.87-.21,1.62,1.62,0,0,0,.59-.6,1.83,1.83,0,0,0,.21-.89,1.7,1.7,0,0,0-.46-1.24,1.64,1.64,0,0,0-1.21-.47,1.67,1.67,0,0,0-.86.22,1.48,1.48,0,0,0-.59.6,1.8,1.8,0,0,0-.22.89,1.83,1.83,0,0,0,.22.89,1.62,1.62,0,0,0,.59.6A1.77,1.77,0,0,0,279.88,73Zm-.79-.69V70.16H280a.74.74,0,0,1,.54.19.62.62,0,0,1,.21.49.65.65,0,0,1-.41.66l.54.85h-.55l-.49-.79h-.26v.79Zm.49-1.16h.27a.57.57,0,0,0,.31-.07.31.31,0,0,0,.1-.27.26.26,0,0,0-.09-.23.36.36,0,0,0-.22-.07h-.37Z"/><path class="cls-4" d="M73.31,34.56a3,3,0,0,0-4,1.52c-.51,1.14-2.17,5.76-4.64,12.67-1.31,3.65-2.66,7.42-3,8.17a3,3,0,0,0,1.65,3.94,3,3,0,0,0,1.15.23,3,3,0,0,0,2.8-1.88c.34-.84,1.38-3.74,3.06-8.42s4-11.22,4.47-12.24A3,3,0,0,0,73.31,34.56Z"/><path class="cls-4" d="M71.91,60.85a3,3,0,1,0,3.89,4.63C77.63,64,87.88,52.68,89,51.4a3,3,0,1,0-4.48-4.07C80.09,52.25,73,60,71.91,60.85Z"/><path class="cls-4" d="M89.86,77.09a22.94,22.94,0,0,0-12.47,2.78,3,3,0,1,0,2.86,5.34,17.17,17.17,0,0,1,8.9-2.11,3,3,0,0,0,.71-6Z"/><path class="cls-4" d="M42.54,45.65a3,3,0,0,0-5.61,2.28l4.13,10.13a3,3,0,1,0,5.6-2.29Z"/><path class="cls-4" d="M40.57,67.6c-2.61,6.83,3.08,18,6.7,24.05A4.78,4.78,0,0,0,51.36,94a4.67,4.67,0,0,0,1.38-.21c6.73-2.09,18.43-6.61,21-13.44a11.25,11.25,0,0,0-.44-8.91,10.91,10.91,0,0,0-6.69-5.72,10.1,10.1,0,0,0-6.32,0,10.57,10.57,0,0,0-4.64-4.21A10.71,10.71,0,0,0,47,61.2,11.27,11.27,0,0,0,40.57,67.6ZM49.26,67A4.8,4.8,0,0,1,51,66.67a4.51,4.51,0,0,1,1.94.44c1.59.77,2,1.72,2.74,3.29L56,71a3.13,3.13,0,0,0,4,1.55l.82-.36c1.51-.68,2.34-1.06,4-.56a4.71,4.71,0,0,1,2.88,2.48,5,5,0,0,1,.22,3.93c-1.1,2.87-7.43,6.56-15.91,9.33-4.47-7.72-6.71-14.7-5.62-17.57A5.1,5.1,0,0,1,49.26,67Z"/><path class="cls-4" d="M54.38,58.29h0a3,3,0,0,0,3-3C57.49,50,57,37.18,57,36.64a3,3,0,1,0-6,.23c0,.13.49,13.26.44,18.36A3,3,0,0,0,54.38,58.29Z"/><path class="cls-5" d="M86.46,25c-19.18-.86-40.76-.35-52.53,1-4.66.56-8.67,3.66-9,10.8-.75,18.4-.2,34.12,2.51,50.22C29.06,96.44,33.19,103,48.37,103c13.63,0,27.16.37,40.56-2.16,8.4-1.59,11.65-8,12.14-17.13.75-13.91,0-29.07-1.45-44.1C98.8,31,94.54,25.37,86.46,25ZM51,36.87a3,3,0,1,1,6-.23c0,.54.49,13.4.44,18.66a3,3,0,0,1-3,3h0a3,3,0,0,1-3-3.06C51.44,50.13,51,37,51,36.87Zm4.74,24.61a10.57,10.57,0,0,1,4.64,4.21,10.1,10.1,0,0,1,6.32,0,10.91,10.91,0,0,1,6.69,5.72,11.25,11.25,0,0,1,.44,8.91c-2.61,6.83-14.31,11.35-21,13.44a4.67,4.67,0,0,1-1.38.21,4.78,4.78,0,0,1-4.09-2.3C43.65,85.6,38,74.43,40.57,67.6A11.27,11.27,0,0,1,47,61.2,10.71,10.71,0,0,1,55.69,61.48ZM74.84,38.55c-.45,1-2.78,7.51-4.47,12.24s-2.72,7.58-3.06,8.42a3,3,0,0,1-2.8,1.88,3,3,0,0,1-1.15-.23,3,3,0,0,1-1.65-3.94c.3-.75,1.65-4.52,3-8.17,2.47-6.91,4.13-11.53,4.64-12.67a3,3,0,0,1,5.53,2.47Zm9.72,8.78A3,3,0,1,1,89,51.4C87.88,52.68,77.63,64,75.8,65.48a3,3,0,0,1-3.89-4.63C73,60,80.09,52.25,84.56,47.33ZM45,59.72a3,3,0,0,1-3.94-1.66L36.93,47.93a3,3,0,0,1,5.61-2.28l4.12,10.12A3,3,0,0,1,45,59.72ZM92.51,80.45a3,3,0,0,1-3.36,2.65,17.17,17.17,0,0,0-8.9,2.11,3,3,0,1,1-2.86-5.34,22.94,22.94,0,0,1,12.47-2.78A3,3,0,0,1,92.51,80.45Z"/><path class="cls-5" d="M52,87.4c8.48-2.77,14.81-6.46,15.91-9.33a5,5,0,0,0-.22-3.93,4.71,4.71,0,0,0-2.88-2.48c-1.63-.5-2.46-.12-4,.56l-.82.36A3.13,3.13,0,0,1,56,71l-.29-.63C55,68.83,54.56,67.88,53,67.11A4.51,4.51,0,0,0,51,66.67a4.8,4.8,0,0,0-1.77.34,5.1,5.1,0,0,0-2.85,2.82C45.32,72.7,47.56,79.68,52,87.4Z"/></g></g></svg>